<svg width="275" height="102" viewBox="0 0 275 102" fill="none" xmlns="http://www.w3.org/2000/svg">
<path d="M186.5 28.5L186.892 30.4612L186.5 28.5ZM275 7L252.745 0.830774L258.53 23.1886L275 7ZM0.116965 65.6739C3.00241 73.7362 7.85486 83.7177 16.6363 91.117C25.4906 98.5776 38.1435 103.248 56.2481 100.985L55.7519 97.0154C38.6565 99.1524 27.1428 94.7391 19.2137 88.0581C11.2118 81.3156 6.66426 72.0971 3.88303 64.3261L0.116965 65.6739ZM56.2481 100.985C78.2882 98.2295 90.3554 95.9688 99.1208 94.6011C107.831 93.2421 113.291 92.7599 122.338 93.4935L122.662 89.5065C113.209 88.7401 107.419 89.2579 98.5042 90.6489C89.6446 92.0312 77.7118 94.2705 55.7519 97.0154L56.2481 100.985ZM122.338 93.4935C126.899 93.8633 131.473 94.4807 135.879 95.0979C140.261 95.7117 144.508 96.3299 148.317 96.6792C152.11 97.0268 155.631 97.1258 158.549 96.6365C161.461 96.1484 164.12 95.0126 165.682 92.5815L162.318 90.4185C161.63 91.4874 160.289 92.2891 157.888 92.6916C155.494 93.093 152.39 93.0357 148.683 92.6958C144.992 92.3576 140.864 91.7571 136.434 91.1365C132.027 90.5193 127.351 89.8867 122.662 89.5065L122.338 93.4935ZM165.682 92.5815C166.53 91.2637 166.897 89.2627 167.119 87.2254C167.353 85.0755 167.46 82.4338 167.546 79.5358C167.719 73.6846 167.812 66.6526 168.612 59.6651C169.414 52.6639 170.908 45.9165 173.774 40.6333C176.601 35.4209 180.719 31.6959 186.892 30.4612L186.108 26.5388C178.531 28.0541 173.524 32.7041 170.258 38.7261C167.03 44.6773 165.461 52.0236 164.638 59.2099C163.813 66.4099 163.718 73.6591 163.548 79.4174C163.462 82.3241 163.358 84.8191 163.143 86.7922C162.915 88.8779 162.595 89.9863 162.318 90.4185L165.682 92.5815ZM186.892 30.4612C203.916 27.0564 235.298 19.2706 258.067 13.447L257.076 9.57174C234.289 15.3999 203.01 23.1584 186.108 26.5388L186.892 30.4612Z" fill="#6DCEA5"/>
</svg>
