<svg width="31" height="30" viewBox="0 0 31 30" fill="none" xmlns="http://www.w3.org/2000/svg">
<path d="M14.3657 9.99713L11.7997 13.5678C12.3415 14.6406 13.0314 15.6055 13.8548 16.4423C14.7049 17.2605 15.6864 17.9361 16.7769 18.4534L20.374 15.8903C22.3891 14.4541 24.7592 14.1666 26.359 15.1652L28.8048 16.6912C29.7939 17.3009 30.3897 18.3581 30.466 19.6387C30.5422 20.9194 30.0929 22.323 29.2133 23.5522C26.1326 27.8981 20.9155 31.0251 16.5183 29.6719C12.6528 28.4765 9.25134 26.4806 6.48462 23.7844C3.71513 21.1071 1.65359 17.7501 0.412118 13.8961C-0.973873 9.55556 2.16751 4.39449 6.53222 1.32727C9.13463 -0.503794 12.1923 -0.348812 13.5064 1.68146L15.0565 4.07552C16.075 5.65222 15.8055 7.99477 14.3657 9.99713Z" fill="#38C67A"/>
</svg>
