<svg width="32" height="29" viewBox="0 0 32 29" fill="none" xmlns="http://www.w3.org/2000/svg">
<path d="M1.55764 1.81181V0C1.14453 0 0.748338 0.190887 0.456223 0.530669C0.164108 0.87045 0 1.33129 0 1.81181H1.55764ZM29.5952 1.81181H31.1529C31.1529 1.33129 30.9888 0.87045 30.6966 0.530669C30.4045 0.190887 30.0083 0 29.5952 0V1.81181ZM1.55764 3.62363H29.5952V0H1.55764V3.62363ZM28.0376 1.81181V23.5536H31.1529V1.81181H28.0376ZM26.4799 25.3654H4.67293V28.989H26.4799V25.3654ZM3.11529 23.5536V1.81181H0V23.5536H3.11529ZM4.67293 25.3654C4.25982 25.3654 3.86362 25.1745 3.57151 24.8347C3.27939 24.495 3.11529 24.0341 3.11529 23.5536H0C0 24.9952 0.492325 26.3777 1.36867 27.397C2.24501 28.4164 3.43359 28.989 4.67293 28.989V25.3654ZM28.0376 23.5536C28.0376 24.0341 27.8735 24.495 27.5814 24.8347C27.2892 25.1745 26.893 25.3654 26.4799 25.3654V28.989C27.7193 28.989 28.9078 28.4164 29.7842 27.397C30.6605 26.3777 31.1529 24.9952 31.1529 23.5536H28.0376Z" fill="#38C67A"/>
<path d="M1.55762 1.81201L15.5764 18.1183L29.5952 1.81201" stroke="#38C67A" stroke-width="2" stroke-linecap="round" stroke-linejoin="round"/>
</svg>
