<svg width="93" height="16" viewBox="0 0 93 16" fill="none" xmlns="http://www.w3.org/2000/svg">
<path d="M8.33333 12.0887L13.4833 15.0417L12.1167 9.47625L16.6667 5.73167L10.675 5.24875L8.33333 0L5.99167 5.24875L0 5.73167L4.55 9.47625L3.18333 15.0417L8.33333 12.0887Z" fill="#D42121"/>
<path d="M27.5834 12.0887L32.4759 15.0417L31.1776 9.47625L35.5001 5.73167L29.808 5.24875L27.5834 0L25.3588 5.24875L19.6667 5.73167L23.9892 9.47625L22.6909 15.0417L27.5834 12.0887Z" fill="#D42121"/>
<path d="M46.4167 12.0887L51.3092 15.0417L50.0108 9.47625L54.3333 5.73167L48.6413 5.24875L46.4167 0L44.1921 5.24875L38.5 5.73167L42.8225 9.47625L41.5242 15.0417L46.4167 12.0887Z" fill="#D42121"/>
<path d="M65.6666 12.0887L70.8166 15.0417L69.4499 9.47625L73.9999 5.73167L68.0083 5.24875L65.6666 0L63.3249 5.24875L57.3333 5.73167L61.8833 9.47625L60.5166 15.0417L65.6666 12.0887Z" fill="#D42121"/>
<path d="M84.9167 12.0887L89.8092 15.0417L88.5108 9.47625L92.8333 5.73167L87.1413 5.24875L84.9167 0L82.6921 5.24875L77 5.73167L81.3225 9.47625L80.0242 15.0417L84.9167 12.0887Z" fill="#D42121"/>
</svg>
