<svg width="41" height="53" viewBox="0 0 41 53" fill="none" xmlns="http://www.w3.org/2000/svg">
<path d="M28.9972 30.2437C28.3045 29.4254 26.9684 27.4355 26.9684 27.4355C25.8349 26.1885 24.5036 25.133 23.0269 24.3105C21.8939 23.6918 20.6906 23.209 19.4422 22.8725C18.1509 22.5236 16.8181 22.3479 15.4796 22.3502C13.4059 22.336 11.3513 22.7424 9.44242 23.5445C5.72941 25.0972 2.77492 28.0236 1.20771 31.7008C0.410472 33.5948 0 35.6264 0 37.6784C0 39.7303 0.410472 41.7619 1.20771 43.6559C2.77492 47.3331 5.72941 50.2595 9.44242 51.8122C11.3556 52.6006 13.4073 53.0065 15.4796 53.0065C17.5518 53.0065 19.6035 52.6006 21.5167 51.8122C25.231 50.2578 28.1857 47.3287 29.7514 43.6489C34.1465 48.1336 38.4485 45.5483 40.1679 44.1016L40.9555 43.3669C31.1297 35.2158 29.0921 30.4822 28.9972 30.2437ZM22.1021 37.6792C22.0905 39.1769 21.556 40.6244 20.5892 41.7761C19.6224 42.9278 18.2829 43.7128 16.7982 43.9978C15.3134 44.2827 13.7748 44.0501 12.4435 43.3394C11.1122 42.6288 10.0703 41.4838 9.49454 40.0989C8.9188 38.714 8.84473 37.1744 9.28491 35.7416C9.72508 34.3087 10.6524 33.0708 11.9094 32.2381C13.1664 31.4053 14.6757 31.0289 16.1811 31.1727C17.6865 31.3166 19.0953 31.9719 20.1683 33.0274C20.2896 33.1475 20.4039 33.2712 20.5199 33.4L25.7097 39.3993L25.787 39.4724C24.4966 38.8629 23.2614 38.1447 22.0951 37.3258C22.0986 37.4372 22.1021 37.5556 22.1021 37.674V37.6792Z" fill="#38C67A"/>
<path d="M24.0834 0H23.0286V22.9926C23.0286 22.9926 25.8414 24.9268 26.9631 27.4286C26.9631 27.4286 28.2992 29.4185 28.9919 30.2367C29.3153 30.7938 30.0362 31.4188 30.9539 32.0508V7.59226C30.9591 1.16992 26.237 0.125348 24.0834 0Z" fill="#38C67A"/>
<path d="M26.5025 40.2315C26.0472 39.7481 25.5121 39.3448 24.9203 39.0389C23.9374 38.5313 22.9911 37.9572 22.0881 37.3206C22.0881 37.4373 22.0969 37.5556 22.0969 37.6688C22.0999 38.5309 21.9306 39.385 21.5989 40.182C21.2671 40.9791 20.7794 41.7032 20.1639 42.3128C19.5483 42.9224 18.8171 43.4053 18.0122 43.7338C17.2073 44.0623 16.3448 44.2299 15.4743 44.2269C15.4188 44.2263 15.3637 44.2364 15.3123 44.2569C15.2608 44.2774 15.2139 44.3078 15.1744 44.3463C15.1348 44.3849 15.1034 44.4308 15.0818 44.4814C15.0603 44.532 15.0491 44.5864 15.0488 44.6413V52.5817C15.0486 52.6359 15.0591 52.6896 15.0799 52.7398C15.1006 52.7899 15.1311 52.8355 15.1696 52.874C15.2081 52.9125 15.254 52.9431 15.3044 52.964C15.3549 52.985 15.409 52.9958 15.4637 52.9961H15.4796C17.5531 53.01 19.6077 52.6036 21.5167 51.8018C25.1408 50.287 28.0454 47.4611 29.6389 43.8996L29.5598 43.4453C29.071 42.9404 27.7332 41.5459 26.5025 40.2315Z" fill="#38C67A"/>
<g style="mix-blend-mode:multiply" opacity="0.3">
<path d="M25.7887 39.4707C25.7061 39.4324 25.2613 39.2235 24.6372 38.8892L29.1712 44.8554C29.3787 44.4672 29.5738 44.0668 29.7514 43.6542C29.7514 43.6489 27.436 41.2447 25.7887 39.4707Z" fill="#38C67A"/>
</g>
<path d="M36.1663 39.1068L29.9111 43.8074C34.257 48.0692 38.4676 45.5309 40.1676 44.1016L40.9552 43.3669C39.0917 41.8227 37.5094 40.4003 36.1663 39.1068Z" fill="#38C67A"/>
</svg>
